<svg xmlns="http://www.w3.org/2000/svg" viewBox="0 -0.4000000059604645 154.8000030517578 40.80000305175781" data-asc="0.79" width="154.8000030517578" height="40.80000305175781"><defs/><g fill="#0f172a"><g transform="translate(0, 0)"><path d="M29.40 2L0 2L0 11.60L8.70 11.60L8.70 39.50L20.70 39.50L20.70 11.60L29.40 11.60L29.40 2ZM44.70 21L44.70 39.50L32.70 39.50L32.70 0.50L44.70-0.40L44.70 10.60Q48.55 8.60 53.20 8.60Q57.90 8.60 60.30 10.42Q62.70 12.25 62.70 15.50L62.70 39.50L50.70 39.50L50.70 18.50L48.85 18.50Q46.65 18.50 45.67 18.95Q44.70 19.40 44.70 21ZM68.40 39.50L68.40 9.50L74.40 9.50L77.70 12.85Q81.30 9.55 86.60 8.60L87.30 19.95Q86.60 19.95 85.60 20.15Q84.60 20.35 83.58 20.65Q82.55 20.95 81.70 21.38Q80.85 21.80 80.40 22.35L80.40 39.50L68.40 39.50ZM102.60 29.30L102.60 31.40Q103.50 31.50 104.40 31.55Q105.30 31.60 106.20 31.60Q111.80 31.60 117.50 29.80L118.90 38.60Q112.15 40.40 105.60 40.40Q97.20 40.40 93.45 36.48Q89.70 32.55 89.70 24.50Q89.70 16.45 93.48 12.52Q97.25 8.60 105.60 8.60Q109.80 8.60 112.60 9.13Q115.40 9.65 117.13 10.88Q118.85 12.10 119.58 14.17Q120.30 16.25 120.30 19.40Q120.30 22 119.43 23.88Q118.55 25.75 116.50 26.95Q114.45 28.15 111.05 28.73Q107.65 29.30 102.60 29.30M102.60 19.90L102.60 22.35L105.05 22.35Q107.25 22.35 108.23 21.90Q109.20 21.45 109.20 19.80L109.20 17.35L106.75 17.35Q104.55 17.35 103.58 17.80Q102.60 18.25 102.60 19.90ZM124.80 9.50L130.80 9.50L133.80 12.50Q139.35 8.60 145.80 8.60Q150.05 8.60 152.43 10.42Q154.80 12.25 154.80 15.50L154.80 39.50L142.80 39.50L142.80 18.50L140.95 18.50Q138.90 18.50 137.85 18.92Q136.80 19.35 136.80 20.80L136.80 39.50L124.80 39.50L124.80 9.50Z"/></g></g></svg>